<?xml version="1.0"  ?>
<svg xmlns="http://www.w3.org/2000/svg" id="Layer_1" viewBox="0 0 128 128" width="512" height="512">
    <title>TARGET</title>
    <defs>
        <symbol id="target" viewBox="20 0 88 128" >
            <path d="M49.409,45.335a1.246,1.246,0,0,0,.738-.242q.278-.2.563-.4a1.25,1.25,0,0,0-1.417-2.06q-.316.217-.625.444a1.25,1.25,0,0,0,.74,2.258Z"/>
            <path d="M47.1,45.957a1.252,1.252,0,0,0-1.768.031A25.862,25.862,0,1,0,53.9,40.1a1.25,1.25,0,0,0,.974,2.3,23.466,23.466,0,1,1-7.742,5.321A1.25,1.25,0,0,0,47.1,45.957Z"/>
            <path d="M28.271,59.382a1.248,1.248,0,0,0,1.435-1.032A34.585,34.585,0,0,1,62.75,29.278v4.889a1.25,1.25,0,0,0,2.5,0V21.647a1.25,1.25,0,1,0-2.5,0v5.131A37.074,37.074,0,0,0,27.24,57.947,1.249,1.249,0,0,0,28.271,59.382Z"/>
            <path d="M58.8,98.364A34.947,34.947,0,0,1,29.279,65.25h4.887a1.25,1.25,0,0,0,0-2.5H21.647a1.25,1.25,0,1,0,0,2.5h5.132a37.463,37.463,0,0,0,31.655,35.587,1.341,1.341,0,0,0,.186.014,1.25,1.25,0,0,0,.184-2.486Z"/>
            <path d="M99.785,68.153A1.259,1.259,0,0,0,98.363,69.2,34.951,34.951,0,0,1,65.25,98.721V93.833a1.25,1.25,0,0,0-2.5,0v12.52a1.25,1.25,0,1,0,2.5,0v-5.132a37.467,37.467,0,0,0,35.586-31.646A1.25,1.25,0,0,0,99.785,68.153Z"/>
            <path d="M106.352,62.75h-5.132A37.438,37.438,0,0,0,69.438,27.145a1.25,1.25,0,1,0-.361,2.474A34.924,34.924,0,0,1,98.721,62.75H93.833a1.25,1.25,0,0,0,0,2.5h12.519a1.25,1.25,0,0,0,0-2.5Z"/>
            <path d="M73.5,64A9.5,9.5,0,1,0,64,73.5,9.511,9.511,0,0,0,73.5,64ZM57,64a7,7,0,1,1,7,7A7.008,7.008,0,0,1,57,64Z"/>
        </symbol>
        <symbol id="luggage" viewBox="-104 0 480 480">
            <path d="m232 128h-48v-88h16c4.417969 0 8-3.582031 8-8v-24c0-4.417969-3.582031-8-8-8h-128c-4.417969 0-8 3.582031-8 8v24c0 4.417969 3.582031 8 8 8h16v88h-48c-22.082031.027344-39.9726562 17.917969-40 40v248c.0273438 22.082031 17.917969 39.972656 40 40v16c0 4.417969 3.582031 8 8 8h32c4.417969 0 8-3.582031 8-8v-16h96v16c0 4.417969 3.582031 8 8 8h32c4.417969 0 8-3.582031 8-8v-16c22.082031-.027344 39.972656-17.917969 40-40v-248c-.027344-22.082031-17.917969-39.972656-40-40zm-152-112h112v8h-112zm24 24h64v88h-64zm-32 424h-16v-8h16zm144 0h-16v-8h16zm40-48c0 13.253906-10.746094 24-24 24h-192c-13.253906 0-24-10.746094-24-24v-248c0-13.253906 10.746094-24 24-24h192c13.253906 0 24 10.746094 24 24zm0 0"/>
            <path d="m136 160c-4.417969 0-8 3.582031-8 8v248c0 4.417969 3.582031 8 8 8s8-3.582031 8-8v-248c0-4.417969-3.582031-8-8-8zm0 0"/>
            <path d="m200 176c-4.417969 0-8 3.582031-8 8v216c0 4.417969 3.582031 8 8 8s8-3.582031 8-8v-216c0-4.417969-3.582031-8-8-8zm0 0"/>
            <path d="m72 176c-4.417969 0-8 3.582031-8 8v216c0 4.417969 3.582031 8 8 8s8-3.582031 8-8v-216c0-4.417969-3.582031-8-8-8zm0 0"/>
        </symbol>
        <symbol id="map" viewBox="0 0 470 470">
            <g>
                <path d="m470,310.715v-151.539c0-3.32-2.184-6.246-5.366-7.19l-70.113-20.802c5.427-13.275 8.81-26.451 8.81-38.684 0-51.004-41.495-92.5-92.5-92.5s-92.5,41.495-92.5,92.5c0,12.233 3.383,25.409 8.81,38.684l-67.979,20.169-149.529-44.368c-2.268-0.671-4.722-0.235-6.619,1.18s-3.014,3.644-3.014,6.011v151.728c0,0.018 0,0.037 0,0.055v151.541c0,3.32 2.183,6.246 5.367,7.19l151.549,44.967c0.044,0.013 0.113,0.033 0.113,0.033 0.024,0.007 0.049,0.009 0.073,0.016 0.279,0.08 0.565,0.141 0.857,0.188 0.078,0.013 0.156,0.026 0.235,0.036 0.314,0.041 0.632,0.068 0.956,0.069 0.348,0 0.667-0.028 0.982-0.069 0.078-0.01 0.155-0.023 0.233-0.036 0.292-0.047 0.579-0.109 0.859-0.188 0.024-0.007 0.049-0.009 0.073-0.016l.069-.021c0.044-0.013 146.427-43.445 146.427-43.445 0.93,0.413 1.956,0.647 3.039,0.647s2.11-0.234 3.039-0.647l146.496,43.465c0.701,0.208 1.419,0.31 2.134,0.31 1.598,0 3.175-0.511 4.486-1.49 1.896-1.416 3.014-3.644 3.014-6.01v-151.724c-0.001-0.02-0.001-0.04-0.001-0.06zm-15-145.941v136.016l-136.669-40.55v-21.332c9.78-10.071 48.188-50.995 69.876-93.951l66.793,19.817zm-144.169-149.774c42.733,0 77.5,34.766 77.5,77.5 0,12.181-4.075,25.748-10.412,39.485-0.314,0.502-0.572,1.047-0.765,1.633-18.072,38.149-53.029,77.25-66.325,91.396-13.288-14.131-48.213-53.178-66.292-91.314-0.203-0.642-0.486-1.237-0.833-1.78-6.314-13.712-10.373-27.254-10.373-39.421-8.52651e-14-42.733 34.767-77.499 77.5-77.499zm-7.5,223.907v21.332l-136.669,40.55v-136.015l66.793-19.817c21.689,42.956 60.096,83.88 69.876,93.95zm-288.331,36.979l51.818,15.375c0.712,0.211 1.43,0.312 2.136,0.312 3.235,0 6.22-2.109 7.187-5.369 1.179-3.971-1.085-8.145-5.057-9.323l-56.084-16.641v-136.016l136.662,40.55v136.016l-51.817-15.375c-3.97-1.18-8.145,1.085-9.323,5.057-1.179,3.971 1.085,8.145 5.057,9.323l56.084,16.641v136.016l-136.663-40.55v-136.016zm303.331,136.016v-54.297c0-4.142-3.357-7.5-7.5-7.5s-7.5,3.358-7.5,7.5v54.297l-136.669,40.549v-136.015l136.669-40.55v51.719c0,4.142 3.357,7.5 7.5,7.5s7.5-3.358 7.5-7.5v-51.719l136.669,40.55v136.016l-136.669-40.55z"/>
                <path d="m310.831,145c28.948,0 52.5-23.551 52.5-52.5 0-28.948-23.552-52.5-52.5-52.5s-52.5,23.551-52.5,52.5c0,28.948 23.552,52.5 52.5,52.5zm0-90c20.678,0 37.5,16.822 37.5,37.5 0,20.678-16.822,37.5-37.5,37.5s-37.5-16.822-37.5-37.5c0-20.678 16.822-37.5 37.5-37.5z"/>
            </g>
        </symbol>
        <symbol id="plane" viewBox="0 -101 713.75189 713">
            <path d="m85.085938 304.40625c-6.144532 2.882812-8.855469 10.140625-6.117188 16.34375l28.066406 60.25c1.378906 3 3.894532 5.335938 6.988282 6.488281 1.355468.492188 2.792968.746094 4.238281.746094 1.808593.015625 3.59375-.371094 5.238281-1.117187l212.054688-99.046876-19.207032 200.824219c-.371094 3.953125 1.152344 7.839844 4.109375 10.480469 9.296875 7.695312 20.882813 12.078125 32.9375 12.472656 3.324219-.003906 6.628907-.421875 9.851563-1.242187 17.214844-4.492188 30.5625-19.832031 39.667968-46.03125l83.449219-247.101563 165.273438-77.09375c48.648437-22.699218 73.71875-68.726562 56.882812-104.652344-9.554687-18.777343-27.855469-31.550781-48.773437-34.054687-23.242188-3.507813-46.996094.148437-68.105469 10.484375l-190.726563 89.433594-205.0625-80.207032c-25.824218-9.726562-46.277343-9.476562-60.621093.878907-12.035157 9.875-18.882813 24.71875-18.589844 40.285156.125 3.949219 2.113281 7.601563 5.363281 9.859375l138.082032 94.921875-79.078126 37.421875-132.601562-33.683594c-5.433594-1.335937-11.089844 1.113282-13.84375 5.988282l-33.050781 59.496093c-1.714844 3.152344-1.984375 6.894531-.738281 10.261719 1.238281 3.371094 3.871093 6.039062 7.226562 7.328125l98.167969 40.542969zm57.121093-248.09375c.734375-5.273438 3.402344-10.074219 7.488281-13.472656 7.113282-5.117188 20.085938-4.367188 37.421876 2.117187l182.617187 71.226563-83.328125 38.917968zm-112.257812 180.117188 21.703125-38.542969 127.605468 31.679687c2.75.695313 5.652344.433594 8.238282-.742187l414.75-193.71875c16.488281-8.132813 35.058594-11.09375 53.261718-8.484375 12.765626 1.175781 24.136719 8.542968 30.4375 19.707031 10.46875 22.457031-10.109374 55.261719-44.914062 71.476563l-143.695312 67.363281 8.734374-25.828125c2.207032-6.644532-1.398437-13.824219-8.042968-16.027344-6.652344-2.203125-13.828125 1.402344-16.03125 8.046875l-102.660156 305.476563c-6.113282 17.34375-13.722657 27.699218-22.203126 29.9375-5.253906 1.011718-10.691406-.019532-15.21875-2.863282l24.949219-261.953125c.652344-6.886719-4.398437-13-11.292969-13.652343-6.886718-.660157-13 4.398437-13.65625 11.285156l-3.863281 40.039062-214.054687 99.789063-17.578125-37.421875 35.167969-16.460938c4.527343-1.996094 7.445312-6.472656 7.445312-11.414062 0-4.945313-2.917969-9.421875-7.445312-11.414063zm0 0"/>
        </symbol>
        <symbol id="settings" viewBox="0 0 511.999 511.999">
            <path  d="M489.175,206.556c-9.629-1.442-19.514-2.825-29.379-4.111c-1.195-0.155-2.165-0.966-2.467-2.064
			c-4.553-16.523-11.16-32.467-19.636-47.389c-0.57-1.002-0.463-2.266,0.273-3.223c6.067-7.885,12.081-15.856,17.876-23.69
			c7.824-10.578,6.688-25.588-2.64-34.917l-32.366-32.366c-9.329-9.328-24.338-10.464-34.918-2.638
			c-7.817,5.782-15.787,11.796-23.689,17.875c-0.954,0.736-2.221,0.843-3.223,0.274c-14.921-8.476-30.865-15.083-47.389-19.637
			c-1.099-0.301-1.91-1.271-2.066-2.469c-1.289-9.88-2.671-19.764-4.109-29.376C303.495,9.812,292.079,0,278.886,0h-45.773
			c-13.194,0-24.61,9.812-26.554,22.824c-1.439,9.614-2.821,19.497-4.11,29.379c-0.157,1.197-0.967,2.165-2.067,2.467
			c-16.524,4.556-32.469,11.162-47.387,19.637c-1.003,0.569-2.269,0.459-3.225-0.274c-7.901-6.079-15.872-12.093-23.69-17.876
			c-10.581-7.825-25.59-6.687-34.917,2.64L58.797,91.163c-9.329,9.33-10.464,24.341-2.638,34.918
			c5.804,7.846,11.818,15.815,17.875,23.688c0.735,0.955,0.843,2.22,0.274,3.223c-8.478,14.925-15.084,30.869-19.637,47.389
			c-0.301,1.097-1.271,1.908-2.467,2.065c-9.86,1.287-19.744,2.669-29.378,4.111C9.812,208.502,0,219.92,0,233.112v45.774
			c0,13.193,9.812,24.61,22.824,26.556c9.634,1.442,19.519,2.824,29.379,4.11c1.197,0.157,2.165,0.967,2.467,2.066
			c4.553,16.521,11.16,32.465,19.637,47.389c0.569,1.003,0.461,2.268-0.274,3.223c-6.072,7.892-12.086,15.862-17.875,23.689
			c-7.825,10.578-6.691,25.589,2.638,34.918l32.366,32.366c9.33,9.329,24.341,10.465,34.918,2.638
			c7.817-5.782,15.787-11.796,23.689-17.875c0.955-0.736,2.221-0.842,3.223-0.274c14.92,8.476,30.863,15.081,47.389,19.637
			c1.099,0.302,1.91,1.271,2.066,2.467c1.289,9.88,2.672,19.765,4.11,29.376c1.946,13.013,13.362,22.825,26.556,22.825h45.773
			c13.193,0,24.61-9.812,26.555-22.827c1.439-9.623,2.821-19.507,4.109-29.376c0.157-1.197,0.967-2.166,2.066-2.469
			c16.524-4.556,32.469-11.162,47.388-19.637c1.003-0.567,2.268-0.459,3.224,0.274c7.901,6.079,15.872,12.093,23.689,17.875
			c10.578,7.825,25.588,6.691,34.918-2.638l32.366-32.366c9.328-9.329,10.464-24.339,2.639-34.918
			c-5.795-7.831-11.81-15.802-17.876-23.689c-0.735-0.955-0.843-2.22-0.273-3.223c8.477-14.924,15.083-30.868,19.636-47.388
			c0.304-1.1,1.272-1.91,2.469-2.067c9.863-1.286,19.748-2.669,29.378-4.11c13.013-1.945,22.825-13.362,22.825-26.555v-45.774
			C511.999,219.919,502.187,208.501,489.175,206.556z M488.091,278.888c0,1.45-1.054,2.7-2.453,2.911
			c-9.482,1.419-19.216,2.779-28.932,4.048c-10.758,1.402-19.56,9.024-22.426,19.42c-4.029,14.618-9.875,28.727-17.375,41.932
			c-5.333,9.389-4.504,21.012,2.112,29.612c5.976,7.768,11.899,15.617,17.604,23.329c0.842,1.137,0.702,2.769-0.323,3.794
			l-32.367,32.366c-1.026,1.026-2.657,1.163-3.793,0.324c-7.697-5.695-15.548-11.618-23.33-17.605
			c-8.599-6.617-20.221-7.446-29.609-2.114c-13.205,7.5-27.314,13.347-41.934,17.377c-10.394,2.865-18.016,11.667-19.421,22.426
			c-1.267,9.722-2.629,19.456-4.047,28.932c-0.209,1.399-1.461,2.453-2.911,2.453h-45.773c-1.45,0-2.702-1.054-2.911-2.454
			c-1.415-9.465-2.778-19.199-4.047-28.93c-1.403-10.759-9.027-19.561-19.421-22.426c-14.621-4.03-28.73-9.877-41.934-17.378
			c-4.117-2.337-8.664-3.491-13.196-3.491c-5.804,0-11.585,1.89-16.412,5.607c-7.783,5.987-15.633,11.91-23.33,17.605
			c-1.138,0.839-2.767,0.702-3.792-0.324l-32.367-32.366c-1.026-1.026-1.166-2.656-0.324-3.793
			c5.701-7.707,11.623-15.556,17.604-23.33c6.615-8.6,7.445-20.221,2.114-29.609c-7.503-13.209-13.348-27.317-17.377-41.934
			c-2.865-10.394-11.667-18.017-22.425-19.42c-9.712-1.267-19.447-2.63-28.934-4.048c-1.399-0.21-2.453-1.461-2.453-2.911v-45.774
			c0-1.45,1.054-2.701,2.453-2.911c9.487-1.419,19.221-2.781,28.932-4.048c10.759-1.402,19.561-9.025,22.426-19.42
			c4.027-14.616,9.874-28.725,17.377-41.934c5.332-9.389,4.502-21.011-2.113-29.609c-5.965-7.756-11.888-15.604-17.604-23.33
			c-0.84-1.137-0.701-2.769,0.324-3.793l32.365-32.367c1.024-1.026,2.655-1.163,3.792-0.324c7.697,5.694,15.547,11.617,23.33,17.605
			c8.6,6.614,20.221,7.445,29.611,2.112c13.203-7.5,27.312-13.347,41.932-17.377c10.395-2.865,18.019-11.667,19.422-22.426
			c1.27-9.731,2.631-19.465,4.048-28.933c0.209-1.397,1.461-2.452,2.911-2.452h45.773c1.45,0,2.702,1.054,2.911,2.453
			c1.417,9.465,2.778,19.198,4.048,28.932c1.403,10.759,9.027,19.561,19.421,22.426c14.62,4.03,28.728,9.877,41.934,17.377
			c9.388,5.33,21.01,4.502,29.608-2.114c7.783-5.987,15.633-11.91,23.329-17.604c1.137-0.842,2.769-0.703,3.794,0.324l32.366,32.366
			c1.026,1.026,1.164,2.657,0.324,3.793c-5.705,7.714-11.628,15.562-17.604,23.33c-6.615,8.601-7.445,20.223-2.112,29.612
			c7.501,13.205,13.347,27.313,17.377,41.933c2.865,10.394,11.669,18.016,22.424,19.418c9.716,1.268,19.451,2.63,28.934,4.048
			c1.399,0.21,2.453,1.461,2.453,2.911V278.888z"/>
            <path d="M256,144.866c-61.28,0-111.134,49.854-111.134,111.134S194.72,367.134,256,367.134S367.134,317.28,367.134,256
			S317.28,144.866,256,144.866z M256,343.225c-48.097,0-87.225-39.129-87.225-87.225c0-48.097,39.13-87.225,87.225-87.225
			c48.096,0,87.225,39.129,87.225,87.225S304.097,343.225,256,343.225z"/>
        </symbol>
    </defs>
</svg>
