<?xml version="1.0"?>
<svg xmlns="http://www.w3.org/2000/svg" id="Layer_1" data-name="Layer 1" viewBox="0 0 128 128" width="512" height="512">
    <title>TARGET</title>
    <g class="icon">
        <path d="M49.409,45.335a1.246,1.246,0,0,0,.738-.242q.278-.2.563-.4a1.25,1.25,0,0,0-1.417-2.06q-.316.217-.625.444a1.25,1.25,0,0,0,.74,2.258Z"/>
        <path d="M47.1,45.957a1.252,1.252,0,0,0-1.768.031A25.862,25.862,0,1,0,53.9,40.1a1.25,1.25,0,0,0,.974,2.3,23.466,23.466,0,1,1-7.742,5.321A1.25,1.25,0,0,0,47.1,45.957Z"/>
        <path d="M28.271,59.382a1.248,1.248,0,0,0,1.435-1.032A34.585,34.585,0,0,1,62.75,29.278v4.889a1.25,1.25,0,0,0,2.5,0V21.647a1.25,1.25,0,1,0-2.5,0v5.131A37.074,37.074,0,0,0,27.24,57.947,1.249,1.249,0,0,0,28.271,59.382Z"/>
        <path d="M58.8,98.364A34.947,34.947,0,0,1,29.279,65.25h4.887a1.25,1.25,0,0,0,0-2.5H21.647a1.25,1.25,0,1,0,0,2.5h5.132a37.463,37.463,0,0,0,31.655,35.587,1.341,1.341,0,0,0,.186.014,1.25,1.25,0,0,0,.184-2.486Z"/>
        <path d="M99.785,68.153A1.259,1.259,0,0,0,98.363,69.2,34.951,34.951,0,0,1,65.25,98.721V93.833a1.25,1.25,0,0,0-2.5,0v12.52a1.25,1.25,0,1,0,2.5,0v-5.132a37.467,37.467,0,0,0,35.586-31.646A1.25,1.25,0,0,0,99.785,68.153Z"/>
        <path d="M106.352,62.75h-5.132A37.438,37.438,0,0,0,69.438,27.145a1.25,1.25,0,1,0-.361,2.474A34.924,34.924,0,0,1,98.721,62.75H93.833a1.25,1.25,0,0,0,0,2.5h12.519a1.25,1.25,0,0,0,0-2.5Z"/>
        <path d="M73.5,64A9.5,9.5,0,1,0,64,73.5,9.511,9.511,0,0,0,73.5,64ZM57,64a7,7,0,1,1,7,7A7.008,7.008,0,0,1,57,64Z"/>
    </g>
</svg>
